<svg width="33" height="22" fill="none" xmlns="http://www.w3.org/2000/svg"><path opacity=".5" d="M1.742 21.365c-.508 0-.944-.181-1.307-.544-.29-.363-.435-.798-.435-1.306s.109-1.089.327-1.742L6.096 2.86c.363-.871.762-1.488 1.197-1.85C7.73.573 8.382.355 9.253.355h3.592c.58 0 1.052.218 1.415.653.218.29.327.653.327 1.089 0 .217-.036.435-.109.653l-2.395 15.458c-.29 2.104-1.306 3.156-3.048 3.156H1.742zm17.417 0c-.508 0-.944-.181-1.306-.544-.29-.363-.436-.798-.436-1.306 0-.726.109-1.306.327-1.742l5.77-14.913c.362-.871.761-1.488 1.197-1.85.435-.436 1.088-.654 1.959-.654h3.592c.58 0 1.053.218 1.415.653.218.29.327.653.327 1.089 0 .217-.036.435-.109.653L29.5 18.209c-.29 2.104-1.306 3.156-3.048 3.156H19.16z" fill="#D8AA5B"/></svg>