<svg width="38" height="39" fill="none" xmlns="http://www.w3.org/2000/svg"><g clip-path="url(#clip0)"><path d="M26.487.995H4.562A4.269 4.269 0 00.299 5.258v21.874a4.269 4.269 0 004.263 4.264h6.7v-1.218h-6.7a3.049 3.049 0 01-3.045-3.046V16.83h3.911a.655.655 0 00.558-.904 2.436 2.436 0 114.46 0 .632.632 0 00.558.904h3.911v3.654a3.654 3.654 0 00-2.07 6.953l.487-1.116a2.436 2.436 0 111.949-4.464.61.61 0 00.852-.558v-4.47h3.097a3.665 3.665 0 002.872 4.19l.243-1.192a2.444 2.444 0 01-1.948-2.388c0-.336.07-.668.205-.975a.61.61 0 00-.557-.852h-3.912v-3.097a3.654 3.654 0 100-7.205V2.213h10.354a3.049 3.049 0 013.045 3.045v10.354H25.62a.61.61 0 00-.558.852c.136.307.206.64.206.975h1.218c0-.204-.017-.408-.052-.61h3.706a.609.609 0 00.609-.608V5.258A4.269 4.269 0 0026.487.995zm-9.745 5.481a2.436 2.436 0 11-.974 4.667.61.61 0 00-.853.557v3.861h-3.092c.03-.184.046-.371.047-.558v-.032-.019a3.654 3.654 0 10-7.308 0V15.003c.001.187.017.373.047.558H1.517V5.258a3.049 3.049 0 013.045-3.045h10.353v3.911a.609.609 0 00.853.558c.307-.136.639-.206.974-.206z" fill="#BFA161"/><path d="M35.536 27.172l-5.12-3.526-1.967-5.254a.609.609 0 00-.816-.344l-3.959 1.75a.609.609 0 00-.323.775c.066.17.128.3.193.434s.125.26.199.457a2.451 2.451 0 01-1.425 3.15 2.436 2.436 0 01-3.285-2.418.61.61 0 00-.824-.601l-4.231 1.593a.609.609 0 00-.356.784l1.519 4.057a3.662 3.662 0 102.53 6.76l1.09 2.909a.609.609 0 00.783.356h.002l6.034-2.273a3.27 3.27 0 001.929 1.722l.384-1.157a2.053 2.053 0 01-1.164-.995l1.836-.692a4.25 4.25 0 004.01 2.827v-1.218a3.064 3.064 0 01-3.045-3.045.609.609 0 00-.178-.43l-2.12-2.121a.903.903 0 01-.084-1.175.886.886 0 01.655-.357.873.873 0 01.699.261l4.252 4.252.861-.86-1.258-1.26c.31-.926.29-1.932-.054-2.846l-1.142-3.049 3.68 2.535c.489.342.78.9.78 1.497v7.866h1.218V29.67a3.05 3.05 0 00-1.303-2.498zm-4.374 1.942c.168.447.23.927.178 1.402l-1.977-1.976a2.116 2.116 0 10-2.993 2.993l1.927 1.926-8.607 3.242-1.161-3.102a.61.61 0 00-.996-.222 2.436 2.436 0 11-2.55-4.043c.193-.072.396-.118.601-.136.127-.016.255-.02.382-.013a.609.609 0 00.603-.822l-1.591-4.247 2.9-1.092a3.654 3.654 0 004.872 2.732 3.67 3.67 0 002.136-4.716 5.432 5.432 0 00-.155-.375l2.801-1.24 3.63 9.689z" fill="#fff"/></g><defs><clipPath id="clip0"><path fill="#fff" transform="translate(.02 .995)" d="M0 0h37.098v37.098H0z"/></clipPath></defs></svg>