<svg width="38" height="38" fill="none" xmlns="http://www.w3.org/2000/svg"><g clip-path="url(#clip0)"><path d="M26.467.253H4.542A4.269 4.269 0 00.279 4.516v21.875a4.269 4.269 0 004.263 4.263h6.7v-1.218h-6.7a3.049 3.049 0 01-3.045-3.045V16.088h3.911a.655.655 0 00.558-.904 2.436 2.436 0 114.46 0 .632.632 0 00.558.904h3.911v3.654a3.654 3.654 0 00-2.07 6.953l.487-1.116a2.436 2.436 0 111.949-4.464.609.609 0 00.852-.557v-4.47h3.097a3.664 3.664 0 002.872 4.19l.243-1.193a2.444 2.444 0 01-1.948-2.388c0-.336.07-.668.205-.975a.609.609 0 00-.558-.852h-3.91v-3.097a3.654 3.654 0 100-7.205V1.471h10.353a3.049 3.049 0 013.045 3.045V14.87H25.6a.61.61 0 00-.558.852c.136.307.206.64.206.975h1.218c0-.204-.017-.408-.052-.61h3.706a.61.61 0 00.609-.608V4.516A4.269 4.269 0 0026.467.253zm-9.745 5.481a2.436 2.436 0 11-.974 4.667.609.609 0 00-.853.558v3.86h-3.092c.03-.184.046-.371.047-.558v-.032-.019a3.654 3.654 0 00-7.308 0V14.261c.001.187.017.374.047.558H1.497V4.516a3.049 3.049 0 013.045-3.045h10.353v3.911a.61.61 0 00.853.558c.307-.136.639-.206.974-.206z" fill="#BFA161"/><path d="M35.517 26.43l-5.12-3.526-1.966-5.253a.609.609 0 00-.817-.345l-3.959 1.75a.609.609 0 00-.322.775c.066.17.127.3.192.434s.126.26.2.457a2.451 2.451 0 01-1.425 3.15 2.436 2.436 0 01-3.286-2.418.609.609 0 00-.823-.601l-4.232 1.593a.609.609 0 00-.355.784l1.519 4.058a3.662 3.662 0 102.53 6.76l1.089 2.908a.609.609 0 00.784.356l6.035-2.273a3.27 3.27 0 001.929 1.722l.385-1.157a2.053 2.053 0 01-1.165-.995l1.837-.692a4.25 4.25 0 004.01 2.827v-1.218a3.064 3.064 0 01-3.045-3.045.609.609 0 00-.179-.43l-2.12-2.121a.903.903 0 01-.084-1.175.886.886 0 01.655-.357.873.873 0 01.7.261l4.251 4.252.862-.86-1.259-1.259c.31-.927.291-1.933-.054-2.847l-1.141-3.048 3.68 2.534c.488.342.779.9.78 1.497v7.866h1.217v-7.866a3.05 3.05 0 00-1.303-2.498zm-4.374 1.942c.169.447.23.927.178 1.402l-1.977-1.976a2.116 2.116 0 10-2.992 2.993l1.926 1.926-8.607 3.242-1.16-3.102a.61.61 0 00-.997-.221 2.436 2.436 0 11-2.55-4.044c.193-.072.396-.118.602-.136.127-.016.254-.02.382-.013a.609.609 0 00.602-.822l-1.59-4.247 2.9-1.092a3.654 3.654 0 004.872 2.732 3.67 3.67 0 002.135-4.716 5.357 5.357 0 00-.155-.375l2.802-1.24 3.63 9.689z" fill="#111"/></g><defs><clipPath id="clip0"><path fill="#fff" transform="translate(0 .253)" d="M0 0h37.098v37.098H0z"/></clipPath></defs></svg>