<svg width="45" height="45" fill="none" xmlns="http://www.w3.org/2000/svg"><path d="M.523 22.431C.523 10.251 10.402.378 22.587.378c12.186 0 22.064 9.873 22.064 22.053 0 12.18-9.878 22.053-22.064 22.053-12.185 0-22.064-9.873-22.064-22.053z" fill="url(#paint0_linear)"/><mask id="a" maskUnits="userSpaceOnUse" x="0" y="0" width="45" height="45"><path fill-rule="evenodd" clip-rule="evenodd" d="M.523 22.431C.523 10.251 10.402.378 22.587.378c12.186 0 22.064 9.873 22.064 22.053 0 12.18-9.878 22.053-22.064 22.053-12.185 0-22.064-9.873-22.064-22.053z" fill="#fff"/></mask><g mask="url(#a)"><path fill-rule="evenodd" clip-rule="evenodd" d="M22.589 10.67c-3.196 0-3.597.014-4.852.071-1.253.057-2.108.256-2.856.546-.774.3-1.43.703-2.085 1.357a5.774 5.774 0 00-1.358 2.083c-.292.748-.49 1.603-.547 2.855-.056 1.254-.07 1.655-.07 4.85 0 3.194.014 3.594.07 4.848.058 1.252.256 2.107.547 2.855.3.773.703 1.43 1.357 2.083a5.761 5.761 0 002.084 1.358c.749.29 1.604.49 2.857.546 1.255.057 1.656.072 4.851.072 3.197 0 3.596-.015 4.852-.072 1.252-.057 2.108-.255 2.857-.546.774-.3 1.43-.703 2.083-1.358a5.775 5.775 0 001.358-2.083c.29-.748.488-1.603.547-2.855.057-1.254.071-1.654.071-4.848 0-3.195-.014-3.595-.07-4.85-.06-1.252-.258-2.107-.547-2.855a5.774 5.774 0 00-1.359-2.083 5.752 5.752 0 00-2.084-1.357c-.75-.29-1.605-.489-2.858-.546-1.255-.057-1.655-.071-4.852-.071h.004zm-1.056 2.12h1.056c3.142 0 3.514.01 4.755.067 1.147.053 1.77.244 2.185.405.55.213.94.468 1.352.88.412.411.667.803.88 1.352.162.415.354 1.037.406 2.184.056 1.24.069 1.612.069 4.75 0 3.14-.012 3.512-.069 4.752-.052 1.147-.244 1.77-.405 2.183-.213.55-.469.94-.88 1.352a3.64 3.64 0 01-1.353.88c-.414.161-1.038.352-2.185.405-1.24.056-1.613.068-4.755.068s-3.514-.012-4.755-.068c-1.147-.053-1.77-.245-2.185-.406a3.645 3.645 0 01-1.353-.88 3.646 3.646 0 01-.881-1.351c-.161-.415-.353-1.037-.405-2.184-.057-1.24-.068-1.612-.068-4.753 0-3.14.011-3.511.068-4.751.052-1.147.244-1.77.405-2.184.213-.549.469-.941.88-1.353a3.652 3.652 0 011.354-.88c.415-.162 1.038-.353 2.185-.405 1.085-.05 1.506-.064 3.7-.066v.002zm5.927 3.364a1.412 1.412 0 112.824.001 1.412 1.412 0 01-2.824-.001zm-4.872.237a6.042 6.042 0 00-6.043 6.04 6.04 6.04 0 006.044 6.04 6.04 6.04 0 100-12.08zm3.924 6.041a3.922 3.922 0 00-3.922-3.92 3.921 3.921 0 103.922 3.92z" fill="#fff"/></g><defs><linearGradient id="paint0_linear" x1="11.555" y1="42.646" x2="38.199" y2="5.879" gradientUnits="userSpaceOnUse"><stop stop-color="#FEE277"/><stop offset=".281" stop-color="#F78434"/><stop offset=".563" stop-color="#F03C48"/><stop offset=".807" stop-color="#DA2783"/><stop offset="1" stop-color="#9F33AA"/></linearGradient></defs></svg>