<svg width="45" height="45" fill="none" xmlns="http://www.w3.org/2000/svg"><path d="M.047 22.431C.047 10.251 9.925.378 22.11.378S44.175 10.25 44.175 22.43c0 12.18-9.878 22.053-22.064 22.053S.047 34.611.047 22.431z" fill="#F68634"/><path d="M24.498 27.43l3.297 3.182c.676.65.676 1.706 0 2.357a1.772 1.772 0 01-2.442 0l-3.242-3.126-3.24 3.126c-.337.325-.78.488-1.222.488-.442 0-.884-.163-1.222-.488a1.627 1.627 0 010-2.357l3.297-3.182A11.295 11.295 0 0116.3 26.06c-.807-.49-1.05-1.52-.54-2.299.506-.78 1.573-1.015 2.381-.524a7.721 7.721 0 007.942 0c.808-.491 1.875-.256 2.383.524s.265 1.808-.542 2.3a11.277 11.277 0 01-3.425 1.368z" fill="#fff"/><path fill-rule="evenodd" clip-rule="evenodd" d="M16.197 17.096c0 3.137 2.646 5.689 5.899 5.689s5.898-2.552 5.898-5.69c0-3.138-2.645-5.69-5.898-5.69-3.253 0-5.899 2.552-5.899 5.69zm8.342 0c0-1.3-1.095-2.356-2.442-2.356-1.346 0-2.442 1.056-2.442 2.356 0 1.298 1.096 2.355 2.442 2.355 1.347 0 2.442-1.057 2.442-2.355z" fill="#fff"/></svg>