<svg width="45" height="45" fill="none" xmlns="http://www.w3.org/2000/svg"><path d="M.22 22.431C.22 10.251 10.1.378 22.286.378S44.349 10.25 44.349 22.43c0 12.18-9.879 22.053-22.064 22.053C10.099 44.484.22 34.611.22 22.431z" fill="#55ACEE"/><path d="M21.625 18.303l.046.763-.771-.094c-2.81-.358-5.263-1.573-7.346-3.613l-1.02-1.012-.261.748c-.556 1.666-.201 3.426.956 4.61.618.653.479.747-.586.357-.37-.124-.695-.218-.726-.171-.107.109.263 1.526.556 2.087.401.778 1.22 1.542 2.114 1.993l.757.358-.895.016c-.865 0-.896.015-.803.343.309 1.012 1.528 2.086 2.886 2.554l.957.327-.833.498a8.694 8.694 0 01-4.137 1.152c-.694.016-1.265.078-1.265.125 0 .156 1.883 1.028 2.979 1.37 3.287 1.013 7.191.577 10.124-1.152 2.083-1.23 4.167-3.675 5.14-6.042.524-1.262 1.049-3.567 1.049-4.672 0-.717.046-.81.91-1.667.51-.498.988-1.043 1.08-1.199.155-.296.14-.296-.648-.031-1.312.467-1.497.405-.849-.296.479-.498 1.05-1.401 1.05-1.666 0-.047-.232.03-.494.171-.278.156-.895.39-1.358.53l-.833.264-.757-.514c-.416-.28-1.003-.591-1.312-.685-.787-.218-1.99-.187-2.7.063-1.93.7-3.149 2.507-3.01 4.485z" fill="#fff"/></svg>