<svg width="45" height="45" fill="none" xmlns="http://www.w3.org/2000/svg"><path d="M.35 22.431C.35 10.251 10.228.378 22.414.378c12.185 0 22.064 9.873 22.064 22.053 0 12.18-9.879 22.053-22.064 22.053C10.228 44.484.35 34.611.35 22.431z" fill="#4C6C91"/><path d="M23.568 29.669s.425-.047.642-.276c.2-.21.193-.606.193-.606s-.027-1.851.85-2.125c.863-.268 1.971 1.79 3.147 2.582.89.599 1.564.468 1.564.468l3.143-.043s1.644-.1.865-1.368c-.065-.104-.455-.938-2.337-2.653-1.972-1.794-1.707-1.504.666-4.609 1.446-1.89 2.024-3.044 1.843-3.538-.171-.472-1.235-.347-1.235-.347l-3.538.022s-.263-.035-.457.079c-.19.112-.313.373-.313.373s-.56 1.462-1.307 2.707c-1.576 2.624-2.205 2.763-2.463 2.6-.6-.38-.45-1.526-.45-2.34 0-2.545.393-3.605-.766-3.88-.384-.091-.667-.151-1.651-.161-1.263-.013-2.331.004-2.937.294-.403.194-.714.625-.524.65.234.03.764.14 1.044.515.363.484.35 1.57.35 1.57s.209 2.996-.487 3.367c-.476.256-1.13-.265-2.535-2.647-.72-1.22-1.263-2.568-1.263-2.568s-.105-.252-.293-.387c-.226-.164-.543-.215-.543-.215l-3.362.021s-.506.014-.69.23c-.165.19-.014.587-.014.587s2.633 6.043 5.614 9.089c2.734 2.792 5.837 2.609 5.837 2.609h1.407z" fill="#fff"/></svg>