<svg width="45" height="45" fill="none" xmlns="http://www.w3.org/2000/svg"><path d="M.697 22.431C.697 10.251 10.576.378 22.761.378c12.186 0 22.064 9.873 22.064 22.053 0 12.18-9.878 22.053-22.064 22.053-12.185 0-22.064-9.873-22.064-22.053z" fill="red"/><path d="M34.037 16.986a2.987 2.987 0 00-2.08-2.136c-1.836-.504-9.195-.504-9.195-.504s-7.36 0-9.195.505a2.987 2.987 0 00-2.081 2.135c-.492 1.883-.492 5.813-.492 5.813s0 3.93.492 5.814a2.988 2.988 0 002.08 2.136c1.836.504 9.196.504 9.196.504s7.36 0 9.194-.505a2.988 2.988 0 002.081-2.135c.492-1.884.492-5.814.492-5.814s0-3.93-.492-5.813z" fill="#fff"/><path d="M20.555 26.841v-7.35l5.883 3.675-5.883 3.675z" fill="red"/></svg>